<svg width="479" height="235" viewBox="0 0 479 235" fill="none" xmlns="http://www.w3.org/2000/svg">
<rect x="406" y="98.1467" width="72" height="62.4571" rx="5" fill="#0E1330"/>
<rect x="406" y="64.4397" width="72" height="21.8104" rx="5" fill="#0E1330"/>
<rect x="406" y="32.7156" width="72" height="21.8104" rx="5" fill="#0E1330"/>
<rect opacity="0.6" x="406" width="20" height="18.8363" rx="5" fill="#B756FE"/>
<rect opacity="0.6" x="433" width="19" height="18.8363" rx="5" fill="#7214FF"/>
<rect opacity="0.6" x="459" width="20" height="18.8363" rx="5" fill="#32CAFD"/>
<rect width="158" height="86.2503" rx="5" fill="#0E1330"/>
<rect x="14" y="12.8879" width="15" height="14.8707" rx="4" fill="#282D45"/>
<rect x="14" y="58.4915" width="15" height="14.8707" rx="4" fill="#282D45"/>
<rect opacity="0.4" x="40" y="12.8879" width="105" height="14.8707" rx="4" fill="#2D55FB"/>
<rect opacity="0.4" x="40" y="35.6897" width="105" height="14.8707" rx="4" fill="#32CAFD"/>
<rect opacity="0.4" x="40" y="58.4915" width="105" height="14.8707" rx="4" fill="#B756FE"/>
<rect x="170" width="96" height="86.2503" rx="5" fill="#0E1330"/>
<line x1="190" y1="18.793" x2="244" y2="18.793" stroke="#282D45" stroke-width="10" stroke-linecap="round"/>
<line x1="190" y1="41.5947" x2="244" y2="41.5947" stroke="#282D45" stroke-width="10" stroke-linecap="round"/>
<line x1="217.5" y1="67.8538" x2="242.5" y2="67.8538" stroke="#282D45" stroke-width="13" stroke-linecap="round"/>
<line x1="191.5" y1="67.8538" x2="197.5" y2="67.8538" stroke="#282D45" stroke-width="13" stroke-linecap="round"/>
<rect y="98.1467" width="266" height="62.4571" rx="5" fill="#0E1330"/>
<line x1="17" y1="114.957" x2="69" y2="114.957" stroke="#282D45" stroke-width="10" stroke-linecap="round"/>
<line x1="14.5" y1="132.328" x2="240.5" y2="132.328" stroke="#282D45" stroke-width="5" stroke-linecap="round"/>
<line x1="14.5" y1="145.216" x2="202.5" y2="145.216" stroke="#282D45" stroke-width="5" stroke-linecap="round"/>
<rect y="172.5" width="266" height="62.4571" rx="5" fill="#0E1330"/>
<line x1="17" y1="189.311" x2="69" y2="189.311" stroke="#282D45" stroke-width="10" stroke-linecap="round"/>
<line x1="14.5" y1="206.681" x2="240.5" y2="206.681" stroke="#282D45" stroke-width="5" stroke-linecap="round"/>
<line x1="14.5" y1="219.569" x2="202.5" y2="219.569" stroke="#282D45" stroke-width="5" stroke-linecap="round"/>
<rect x="278" y="172.5" width="200" height="62.4571" rx="5" fill="#0E1330"/>
<line x1="295" y1="189.311" x2="347" y2="189.311" stroke="#282D45" stroke-width="10" stroke-linecap="round"/>
<line x1="292.5" y1="206.681" x2="452.5" y2="206.681" stroke="#282D45" stroke-width="5" stroke-linecap="round"/>
<line x1="292.5" y1="219.569" x2="423.5" y2="219.569" stroke="#282D45" stroke-width="5" stroke-linecap="round"/>
<rect x="278" width="116" height="160.604" rx="5" fill="#0E1330"/>
<line x1="298" y1="17.8018" x2="371" y2="17.8018" stroke="#282D45" stroke-width="10" stroke-linecap="round"/>
<line x1="316.5" y1="44.0947" x2="373.5" y2="44.0947" stroke="#282D45" stroke-width="5" stroke-linecap="round"/>
<line x1="295.5" y1="44.0947" x2="300.5" y2="44.0947" stroke="#282D45" stroke-width="5" stroke-linecap="round"/>
<line x1="316.5" y1="69.8708" x2="373.5" y2="69.8708" stroke="#282D45" stroke-width="5" stroke-linecap="round"/>
<line x1="295.5" y1="69.8708" x2="300.5" y2="69.8708" stroke="#282D45" stroke-width="5" stroke-linecap="round"/>
<line x1="316.5" y1="56.9827" x2="373.5" y2="56.9827" stroke="#282D45" stroke-width="5" stroke-linecap="round"/>
<line x1="295.5" y1="56.9827" x2="300.5" y2="56.9827" stroke="#282D45" stroke-width="5" stroke-linecap="round"/>
<line x1="316.5" y1="82.7588" x2="373.5" y2="82.7588" stroke="#282D45" stroke-width="5" stroke-linecap="round"/>
<line x1="295.5" y1="82.7588" x2="300.5" y2="82.7588" stroke="#282D45" stroke-width="5" stroke-linecap="round"/>
<line x1="360.5" y1="145.216" x2="373.5" y2="145.216" stroke="#282D45" stroke-width="5" stroke-linecap="round"/>
<line x1="295.5" y1="145.216" x2="345.5" y2="145.216" stroke="#282D45" stroke-width="5" stroke-linecap="round"/>
</svg>
